<mxfile host="app.diagrams.net" modified="2021-09-27T19:57:10.880Z" agent="5.0 (Windows NT 10.0; Win64; x64) AppleWebKit/537.36 (KHTML, like Gecko) Chrome/94.0.4606.54 Safari/537.36" etag="kDKA6w0TbLslXyCkZ22I" version="14.9.9" type="github">
  <diagram id="KbUfNCk6pT_lLODC6JdR" name="Page-1">
    <mxGraphModel dx="1314" dy="2149" grid="1" gridSize="10" guides="1" tooltips="1" connect="1" arrows="1" fold="1" page="1" pageScale="1" pageWidth="827" pageHeight="1169" math="0" shadow="0">
      <root>
        <mxCell id="0" />
        <mxCell id="1" parent="0" />
        <mxCell id="KDEMrrc6IDoYBbAUKzl8-1" value="&lt;font style=&quot;font-size: 18px&quot;&gt;HOSPITAL&lt;/font&gt;" style="rounded=0;whiteSpace=wrap;html=1;" vertex="1" parent="1">
          <mxGeometry x="116" y="559" width="120" height="60" as="geometry" />
        </mxCell>
        <mxCell id="KDEMrrc6IDoYBbAUKzl8-2" value="&lt;font style=&quot;font-size: 18px&quot;&gt;ALA&lt;/font&gt;" style="rounded=0;whiteSpace=wrap;html=1;" vertex="1" parent="1">
          <mxGeometry x="116" y="155" width="120" height="60" as="geometry" />
        </mxCell>
        <mxCell id="KDEMrrc6IDoYBbAUKzl8-3" value="&lt;font style=&quot;font-size: 18px&quot;&gt;Possui&lt;/font&gt;" style="rhombus;whiteSpace=wrap;html=1;" vertex="1" parent="1">
          <mxGeometry x="136" y="325" width="80" height="80" as="geometry" />
        </mxCell>
        <mxCell id="KDEMrrc6IDoYBbAUKzl8-4" value="" style="endArrow=none;html=1;exitX=0.5;exitY=0;exitDx=0;exitDy=0;entryX=0.5;entryY=1;entryDx=0;entryDy=0;" edge="1" parent="1" source="KDEMrrc6IDoYBbAUKzl8-1" target="KDEMrrc6IDoYBbAUKzl8-3">
          <mxGeometry width="50" height="50" relative="1" as="geometry">
            <mxPoint x="186" y="535" as="sourcePoint" />
            <mxPoint x="236" y="485" as="targetPoint" />
          </mxGeometry>
        </mxCell>
        <mxCell id="KDEMrrc6IDoYBbAUKzl8-12" value="&lt;font style=&quot;font-size: 18px&quot;&gt;1&lt;/font&gt;" style="edgeLabel;html=1;align=center;verticalAlign=middle;resizable=0;points=[];" vertex="1" connectable="0" parent="KDEMrrc6IDoYBbAUKzl8-4">
          <mxGeometry x="-0.2282" relative="1" as="geometry">
            <mxPoint y="-14" as="offset" />
          </mxGeometry>
        </mxCell>
        <mxCell id="KDEMrrc6IDoYBbAUKzl8-10" value="" style="shape=link;html=1;rounded=0;exitX=0.5;exitY=1;exitDx=0;exitDy=0;entryX=0.5;entryY=0;entryDx=0;entryDy=0;" edge="1" parent="1" source="KDEMrrc6IDoYBbAUKzl8-2" target="KDEMrrc6IDoYBbAUKzl8-3">
          <mxGeometry relative="1" as="geometry">
            <mxPoint x="310" y="295" as="sourcePoint" />
            <mxPoint x="470" y="295" as="targetPoint" />
          </mxGeometry>
        </mxCell>
        <mxCell id="KDEMrrc6IDoYBbAUKzl8-11" value="N" style="resizable=0;html=1;align=right;verticalAlign=bottom;" connectable="0" vertex="1" parent="KDEMrrc6IDoYBbAUKzl8-10">
          <mxGeometry x="1" relative="1" as="geometry">
            <mxPoint y="-50" as="offset" />
          </mxGeometry>
        </mxCell>
        <mxCell id="KDEMrrc6IDoYBbAUKzl8-28" style="edgeStyle=orthogonalEdgeStyle;rounded=1;orthogonalLoop=1;jettySize=auto;html=1;entryX=1;entryY=0.5;entryDx=0;entryDy=0;fontSize=23;exitX=1;exitY=1;exitDx=0;exitDy=0;endArrow=none;endFill=0;" edge="1" parent="1" source="KDEMrrc6IDoYBbAUKzl8-13" target="KDEMrrc6IDoYBbAUKzl8-22">
          <mxGeometry relative="1" as="geometry">
            <Array as="points">
              <mxPoint x="592" y="365" />
            </Array>
          </mxGeometry>
        </mxCell>
        <mxCell id="KDEMrrc6IDoYBbAUKzl8-31" value="n" style="edgeLabel;html=1;align=center;verticalAlign=middle;resizable=0;points=[];fontSize=23;" vertex="1" connectable="0" parent="KDEMrrc6IDoYBbAUKzl8-28">
          <mxGeometry x="-0.2772" y="2" relative="1" as="geometry">
            <mxPoint as="offset" />
          </mxGeometry>
        </mxCell>
        <mxCell id="KDEMrrc6IDoYBbAUKzl8-13" value="&lt;font style=&quot;font-size: 18px&quot;&gt;ENFERMERA&lt;/font&gt;" style="whiteSpace=wrap;html=1;align=center;" vertex="1" parent="1">
          <mxGeometry x="446" y="145" width="146" height="70" as="geometry" />
        </mxCell>
        <mxCell id="KDEMrrc6IDoYBbAUKzl8-14" value="&lt;font style=&quot;font-size: 18px&quot;&gt;Atende&lt;/font&gt;" style="rhombus;whiteSpace=wrap;html=1;" vertex="1" parent="1">
          <mxGeometry x="296" y="145" width="80" height="80" as="geometry" />
        </mxCell>
        <mxCell id="KDEMrrc6IDoYBbAUKzl8-15" value="" style="endArrow=none;html=1;exitX=1;exitY=0.5;exitDx=0;exitDy=0;entryX=0;entryY=0.5;entryDx=0;entryDy=0;" edge="1" parent="1" source="KDEMrrc6IDoYBbAUKzl8-2" target="KDEMrrc6IDoYBbAUKzl8-14">
          <mxGeometry width="50" height="50" relative="1" as="geometry">
            <mxPoint x="366" y="435" as="sourcePoint" />
            <mxPoint x="416" y="385" as="targetPoint" />
          </mxGeometry>
        </mxCell>
        <mxCell id="KDEMrrc6IDoYBbAUKzl8-21" value="1" style="edgeLabel;html=1;align=center;verticalAlign=middle;resizable=0;points=[];fontSize=23;" vertex="1" connectable="0" parent="KDEMrrc6IDoYBbAUKzl8-15">
          <mxGeometry x="-0.0725" y="1" relative="1" as="geometry">
            <mxPoint as="offset" />
          </mxGeometry>
        </mxCell>
        <mxCell id="KDEMrrc6IDoYBbAUKzl8-16" value="" style="endArrow=none;html=1;exitX=1;exitY=0.5;exitDx=0;exitDy=0;fontSize=14;shape=link;" edge="1" parent="1" source="KDEMrrc6IDoYBbAUKzl8-14">
          <mxGeometry width="50" height="50" relative="1" as="geometry">
            <mxPoint x="366" y="435" as="sourcePoint" />
            <mxPoint x="446" y="185" as="targetPoint" />
          </mxGeometry>
        </mxCell>
        <mxCell id="KDEMrrc6IDoYBbAUKzl8-20" value="n" style="edgeLabel;html=1;align=center;verticalAlign=middle;resizable=0;points=[];fontSize=23;" vertex="1" connectable="0" parent="KDEMrrc6IDoYBbAUKzl8-16">
          <mxGeometry x="-0.098" relative="1" as="geometry">
            <mxPoint as="offset" />
          </mxGeometry>
        </mxCell>
        <mxCell id="KDEMrrc6IDoYBbAUKzl8-29" style="edgeStyle=orthogonalEdgeStyle;rounded=0;orthogonalLoop=1;jettySize=auto;html=1;fontSize=23;entryX=0;entryY=1;entryDx=0;entryDy=0;entryPerimeter=0;endArrow=none;endFill=0;exitX=0.088;exitY=0.5;exitDx=0;exitDy=0;exitPerimeter=0;" edge="1" parent="1" source="KDEMrrc6IDoYBbAUKzl8-22" target="KDEMrrc6IDoYBbAUKzl8-13">
          <mxGeometry relative="1" as="geometry">
            <mxPoint x="446" y="225" as="targetPoint" />
            <mxPoint x="476" y="365" as="sourcePoint" />
          </mxGeometry>
        </mxCell>
        <mxCell id="KDEMrrc6IDoYBbAUKzl8-30" value="1" style="edgeLabel;html=1;align=center;verticalAlign=middle;resizable=0;points=[];fontSize=23;" vertex="1" connectable="0" parent="KDEMrrc6IDoYBbAUKzl8-29">
          <mxGeometry x="0.2647" y="1" relative="1" as="geometry">
            <mxPoint as="offset" />
          </mxGeometry>
        </mxCell>
        <mxCell id="KDEMrrc6IDoYBbAUKzl8-22" value="&lt;span style=&quot;font-size: 18px&quot;&gt;Chefia&lt;/span&gt;" style="rhombus;whiteSpace=wrap;html=1;" vertex="1" parent="1">
          <mxGeometry x="479" y="325" width="80" height="80" as="geometry" />
        </mxCell>
        <mxCell id="KDEMrrc6IDoYBbAUKzl8-34" style="edgeStyle=orthogonalEdgeStyle;rounded=1;orthogonalLoop=1;jettySize=auto;html=1;entryX=0.5;entryY=1;entryDx=0;entryDy=0;fontSize=23;endArrow=none;endFill=0;" edge="1" parent="1" source="KDEMrrc6IDoYBbAUKzl8-32" target="KDEMrrc6IDoYBbAUKzl8-1">
          <mxGeometry relative="1" as="geometry" />
        </mxCell>
        <mxCell id="KDEMrrc6IDoYBbAUKzl8-37" value="N" style="edgeLabel;html=1;align=center;verticalAlign=middle;resizable=0;points=[];fontSize=23;" vertex="1" connectable="0" parent="KDEMrrc6IDoYBbAUKzl8-34">
          <mxGeometry x="-0.2068" y="-3" relative="1" as="geometry">
            <mxPoint as="offset" />
          </mxGeometry>
        </mxCell>
        <mxCell id="KDEMrrc6IDoYBbAUKzl8-35" style="edgeStyle=orthogonalEdgeStyle;rounded=1;orthogonalLoop=1;jettySize=auto;html=1;entryX=0.5;entryY=0;entryDx=0;entryDy=0;fontSize=23;endArrow=none;endFill=0;" edge="1" parent="1" source="KDEMrrc6IDoYBbAUKzl8-32" target="KDEMrrc6IDoYBbAUKzl8-33">
          <mxGeometry relative="1" as="geometry" />
        </mxCell>
        <mxCell id="KDEMrrc6IDoYBbAUKzl8-36" value="N" style="edgeLabel;html=1;align=center;verticalAlign=middle;resizable=0;points=[];fontSize=23;" vertex="1" connectable="0" parent="KDEMrrc6IDoYBbAUKzl8-35">
          <mxGeometry x="-0.1176" relative="1" as="geometry">
            <mxPoint as="offset" />
          </mxGeometry>
        </mxCell>
        <mxCell id="KDEMrrc6IDoYBbAUKzl8-32" value="&lt;font style=&quot;font-size: 18px&quot;&gt;Credencia&lt;/font&gt;" style="rhombus;whiteSpace=wrap;html=1;" vertex="1" parent="1">
          <mxGeometry x="126" y="685" width="100" height="90" as="geometry" />
        </mxCell>
        <mxCell id="KDEMrrc6IDoYBbAUKzl8-70" style="edgeStyle=orthogonalEdgeStyle;rounded=1;orthogonalLoop=1;jettySize=auto;html=1;fontSize=23;endArrow=none;endFill=0;entryX=0.5;entryY=0;entryDx=0;entryDy=0;" edge="1" parent="1" source="KDEMrrc6IDoYBbAUKzl8-33" target="KDEMrrc6IDoYBbAUKzl8-71">
          <mxGeometry relative="1" as="geometry">
            <mxPoint x="176.0000000000001" y="1015" as="targetPoint" />
          </mxGeometry>
        </mxCell>
        <mxCell id="KDEMrrc6IDoYBbAUKzl8-33" value="&lt;font style=&quot;font-size: 18px&quot;&gt;PLANO DE&lt;br&gt;SAUDE&lt;br&gt;&lt;/font&gt;" style="rounded=0;whiteSpace=wrap;html=1;" vertex="1" parent="1">
          <mxGeometry x="116" y="845" width="120" height="60" as="geometry" />
        </mxCell>
        <mxCell id="KDEMrrc6IDoYBbAUKzl8-57" value="" style="edgeStyle=orthogonalEdgeStyle;rounded=1;orthogonalLoop=1;jettySize=auto;html=1;fontSize=23;endArrow=none;endFill=0;" edge="1" parent="1" source="KDEMrrc6IDoYBbAUKzl8-38">
          <mxGeometry relative="1" as="geometry">
            <mxPoint x="516" y="765" as="targetPoint" />
          </mxGeometry>
        </mxCell>
        <mxCell id="KDEMrrc6IDoYBbAUKzl8-38" value="&lt;font style=&quot;font-size: 18px&quot;&gt;MÉDICO&lt;br&gt;&lt;/font&gt;" style="rounded=0;whiteSpace=wrap;html=1;" vertex="1" parent="1">
          <mxGeometry x="456" y="845" width="120" height="60" as="geometry" />
        </mxCell>
        <mxCell id="KDEMrrc6IDoYBbAUKzl8-40" style="edgeStyle=orthogonalEdgeStyle;rounded=1;orthogonalLoop=1;jettySize=auto;html=1;entryX=1;entryY=0.5;entryDx=0;entryDy=0;fontSize=23;endArrow=none;endFill=0;" edge="1" parent="1" source="KDEMrrc6IDoYBbAUKzl8-39" target="KDEMrrc6IDoYBbAUKzl8-33">
          <mxGeometry relative="1" as="geometry" />
        </mxCell>
        <mxCell id="KDEMrrc6IDoYBbAUKzl8-42" value="N" style="edgeLabel;html=1;align=center;verticalAlign=middle;resizable=0;points=[];fontSize=23;" vertex="1" connectable="0" parent="KDEMrrc6IDoYBbAUKzl8-40">
          <mxGeometry x="-0.0843" y="-1" relative="1" as="geometry">
            <mxPoint as="offset" />
          </mxGeometry>
        </mxCell>
        <mxCell id="KDEMrrc6IDoYBbAUKzl8-41" style="edgeStyle=orthogonalEdgeStyle;rounded=1;orthogonalLoop=1;jettySize=auto;html=1;entryX=0;entryY=0.5;entryDx=0;entryDy=0;fontSize=23;endArrow=none;endFill=0;" edge="1" parent="1" source="KDEMrrc6IDoYBbAUKzl8-39" target="KDEMrrc6IDoYBbAUKzl8-38">
          <mxGeometry relative="1" as="geometry" />
        </mxCell>
        <mxCell id="KDEMrrc6IDoYBbAUKzl8-43" value="N" style="edgeLabel;html=1;align=center;verticalAlign=middle;resizable=0;points=[];fontSize=23;" vertex="1" connectable="0" parent="KDEMrrc6IDoYBbAUKzl8-41">
          <mxGeometry x="-0.0333" y="2" relative="1" as="geometry">
            <mxPoint as="offset" />
          </mxGeometry>
        </mxCell>
        <mxCell id="KDEMrrc6IDoYBbAUKzl8-39" value="&lt;font style=&quot;font-size: 18px&quot;&gt;Credencia&lt;/font&gt;" style="rhombus;whiteSpace=wrap;html=1;" vertex="1" parent="1">
          <mxGeometry x="296" y="830" width="100" height="90" as="geometry" />
        </mxCell>
        <mxCell id="KDEMrrc6IDoYBbAUKzl8-45" style="edgeStyle=orthogonalEdgeStyle;rounded=1;orthogonalLoop=1;jettySize=auto;html=1;fontSize=23;endArrow=none;endFill=0;" edge="1" parent="1" source="KDEMrrc6IDoYBbAUKzl8-44" target="KDEMrrc6IDoYBbAUKzl8-38">
          <mxGeometry relative="1" as="geometry" />
        </mxCell>
        <mxCell id="KDEMrrc6IDoYBbAUKzl8-44" value="&lt;u&gt;&lt;font style=&quot;font-size: 18px&quot;&gt;CRM&lt;/font&gt;&lt;/u&gt;" style="ellipse;whiteSpace=wrap;html=1;fontSize=23;" vertex="1" parent="1">
          <mxGeometry x="343" y="945" width="76" height="30" as="geometry" />
        </mxCell>
        <mxCell id="KDEMrrc6IDoYBbAUKzl8-47" style="edgeStyle=orthogonalEdgeStyle;rounded=1;orthogonalLoop=1;jettySize=auto;html=1;entryX=0.5;entryY=0;entryDx=0;entryDy=0;fontSize=23;endArrow=none;endFill=0;" edge="1" parent="1" source="KDEMrrc6IDoYBbAUKzl8-46" target="KDEMrrc6IDoYBbAUKzl8-13">
          <mxGeometry relative="1" as="geometry" />
        </mxCell>
        <mxCell id="KDEMrrc6IDoYBbAUKzl8-46" value="&lt;u&gt;&lt;font style=&quot;font-size: 18px&quot;&gt;CRE&lt;/font&gt;&lt;/u&gt;" style="ellipse;whiteSpace=wrap;html=1;fontSize=23;" vertex="1" parent="1">
          <mxGeometry x="559" y="65" width="77" height="40" as="geometry" />
        </mxCell>
        <mxCell id="KDEMrrc6IDoYBbAUKzl8-48" value="&lt;font style=&quot;font-size: 18px&quot;&gt;PACIENTE&lt;br&gt;&lt;/font&gt;" style="rounded=0;whiteSpace=wrap;html=1;" vertex="1" parent="1">
          <mxGeometry x="466" y="595" width="120" height="60" as="geometry" />
        </mxCell>
        <mxCell id="KDEMrrc6IDoYBbAUKzl8-50" style="edgeStyle=orthogonalEdgeStyle;rounded=1;orthogonalLoop=1;jettySize=auto;html=1;entryX=0.5;entryY=0;entryDx=0;entryDy=0;fontSize=23;endArrow=none;endFill=0;" edge="1" parent="1" source="KDEMrrc6IDoYBbAUKzl8-49" target="KDEMrrc6IDoYBbAUKzl8-38">
          <mxGeometry relative="1" as="geometry" />
        </mxCell>
        <mxCell id="KDEMrrc6IDoYBbAUKzl8-58" value="n" style="edgeLabel;html=1;align=center;verticalAlign=middle;resizable=0;points=[];fontSize=23;" vertex="1" connectable="0" parent="KDEMrrc6IDoYBbAUKzl8-50">
          <mxGeometry x="0.08" y="-2" relative="1" as="geometry">
            <mxPoint as="offset" />
          </mxGeometry>
        </mxCell>
        <mxCell id="KDEMrrc6IDoYBbAUKzl8-51" style="edgeStyle=orthogonalEdgeStyle;rounded=1;orthogonalLoop=1;jettySize=auto;html=1;fontSize=23;endArrow=none;endFill=0;" edge="1" parent="1" source="KDEMrrc6IDoYBbAUKzl8-49">
          <mxGeometry relative="1" as="geometry">
            <mxPoint x="516" y="655" as="targetPoint" />
          </mxGeometry>
        </mxCell>
        <mxCell id="KDEMrrc6IDoYBbAUKzl8-59" value="n" style="edgeLabel;html=1;align=center;verticalAlign=middle;resizable=0;points=[];fontSize=23;" vertex="1" connectable="0" parent="KDEMrrc6IDoYBbAUKzl8-51">
          <mxGeometry x="-0.08" y="-1" relative="1" as="geometry">
            <mxPoint as="offset" />
          </mxGeometry>
        </mxCell>
        <mxCell id="KDEMrrc6IDoYBbAUKzl8-49" value="&lt;font style=&quot;font-size: 18px&quot;&gt;Cunsulta&lt;/font&gt;" style="rhombus;whiteSpace=wrap;html=1;" vertex="1" parent="1">
          <mxGeometry x="466" y="705" width="100" height="90" as="geometry" />
        </mxCell>
        <mxCell id="KDEMrrc6IDoYBbAUKzl8-53" style="edgeStyle=orthogonalEdgeStyle;rounded=1;orthogonalLoop=1;jettySize=auto;html=1;fontSize=23;endArrow=none;endFill=0;entryX=1;entryY=0;entryDx=0;entryDy=0;" edge="1" parent="1" source="KDEMrrc6IDoYBbAUKzl8-52" target="KDEMrrc6IDoYBbAUKzl8-49">
          <mxGeometry relative="1" as="geometry" />
        </mxCell>
        <mxCell id="KDEMrrc6IDoYBbAUKzl8-52" value="&lt;span style=&quot;font-size: 18px&quot;&gt;Data&lt;/span&gt;" style="ellipse;whiteSpace=wrap;html=1;fontSize=23;" vertex="1" parent="1">
          <mxGeometry x="626" y="725" width="77" height="40" as="geometry" />
        </mxCell>
        <mxCell id="KDEMrrc6IDoYBbAUKzl8-55" style="edgeStyle=orthogonalEdgeStyle;rounded=1;orthogonalLoop=1;jettySize=auto;html=1;entryX=1;entryY=1;entryDx=0;entryDy=0;fontSize=23;endArrow=none;endFill=0;" edge="1" parent="1" source="KDEMrrc6IDoYBbAUKzl8-54" target="KDEMrrc6IDoYBbAUKzl8-49">
          <mxGeometry relative="1" as="geometry" />
        </mxCell>
        <mxCell id="KDEMrrc6IDoYBbAUKzl8-54" value="&lt;font style=&quot;font-size: 18px&quot;&gt;Hora&lt;/font&gt;" style="ellipse;whiteSpace=wrap;html=1;fontSize=23;" vertex="1" parent="1">
          <mxGeometry x="616" y="785" width="77" height="40" as="geometry" />
        </mxCell>
        <mxCell id="KDEMrrc6IDoYBbAUKzl8-62" style="edgeStyle=orthogonalEdgeStyle;rounded=1;orthogonalLoop=1;jettySize=auto;html=1;entryX=0;entryY=0.25;entryDx=0;entryDy=0;fontSize=23;endArrow=none;endFill=0;" edge="1" parent="1" source="KDEMrrc6IDoYBbAUKzl8-61" target="KDEMrrc6IDoYBbAUKzl8-48">
          <mxGeometry relative="1" as="geometry" />
        </mxCell>
        <mxCell id="KDEMrrc6IDoYBbAUKzl8-61" value="&lt;span style=&quot;font-size: 18px&quot;&gt;&lt;u&gt;CPF&lt;/u&gt;&lt;/span&gt;" style="ellipse;whiteSpace=wrap;html=1;fontSize=23;" vertex="1" parent="1">
          <mxGeometry x="336" y="595" width="77" height="40" as="geometry" />
        </mxCell>
        <mxCell id="KDEMrrc6IDoYBbAUKzl8-64" style="edgeStyle=orthogonalEdgeStyle;rounded=1;orthogonalLoop=1;jettySize=auto;html=1;entryX=1;entryY=0.5;entryDx=0;entryDy=0;fontSize=23;endArrow=none;endFill=0;" edge="1" parent="1" source="KDEMrrc6IDoYBbAUKzl8-63" target="KDEMrrc6IDoYBbAUKzl8-48">
          <mxGeometry relative="1" as="geometry" />
        </mxCell>
        <mxCell id="KDEMrrc6IDoYBbAUKzl8-63" value="&lt;span style=&quot;font-size: 18px&quot;&gt;Nome&lt;/span&gt;" style="ellipse;whiteSpace=wrap;html=1;fontSize=23;" vertex="1" parent="1">
          <mxGeometry x="646" y="605" width="77" height="40" as="geometry" />
        </mxCell>
        <mxCell id="KDEMrrc6IDoYBbAUKzl8-66" style="edgeStyle=orthogonalEdgeStyle;rounded=1;orthogonalLoop=1;jettySize=auto;html=1;entryX=1;entryY=0.5;entryDx=0;entryDy=0;fontSize=23;endArrow=none;endFill=0;" edge="1" parent="1" source="KDEMrrc6IDoYBbAUKzl8-65" target="KDEMrrc6IDoYBbAUKzl8-1">
          <mxGeometry relative="1" as="geometry" />
        </mxCell>
        <mxCell id="KDEMrrc6IDoYBbAUKzl8-65" value="&lt;span style=&quot;font-size: 18px&quot;&gt;&lt;u&gt;CNPJ&lt;/u&gt;&lt;/span&gt;" style="ellipse;whiteSpace=wrap;html=1;fontSize=23;" vertex="1" parent="1">
          <mxGeometry x="266" y="490" width="77" height="40" as="geometry" />
        </mxCell>
        <mxCell id="KDEMrrc6IDoYBbAUKzl8-68" style="edgeStyle=orthogonalEdgeStyle;rounded=1;orthogonalLoop=1;jettySize=auto;html=1;fontSize=23;endArrow=none;endFill=0;" edge="1" parent="1" source="KDEMrrc6IDoYBbAUKzl8-67" target="KDEMrrc6IDoYBbAUKzl8-2">
          <mxGeometry relative="1" as="geometry" />
        </mxCell>
        <mxCell id="KDEMrrc6IDoYBbAUKzl8-67" value="&lt;span style=&quot;font-size: 18px&quot;&gt;&lt;u&gt;IDENTIFICADOR&lt;/u&gt;&lt;/span&gt;" style="ellipse;whiteSpace=wrap;html=1;fontSize=23;" vertex="1" parent="1">
          <mxGeometry x="86" y="55" width="180" height="50" as="geometry" />
        </mxCell>
        <mxCell id="KDEMrrc6IDoYBbAUKzl8-71" value="&lt;span style=&quot;font-size: 18px&quot;&gt;&lt;u&gt;Nome&lt;/u&gt;&lt;/span&gt;" style="ellipse;whiteSpace=wrap;html=1;fontSize=23;" vertex="1" parent="1">
          <mxGeometry x="26" y="995" width="77" height="40" as="geometry" />
        </mxCell>
        <mxCell id="KDEMrrc6IDoYBbAUKzl8-73" style="edgeStyle=orthogonalEdgeStyle;rounded=1;orthogonalLoop=1;jettySize=auto;html=1;entryX=0.5;entryY=1;entryDx=0;entryDy=0;fontSize=23;endArrow=none;endFill=0;" edge="1" parent="1" source="KDEMrrc6IDoYBbAUKzl8-72" target="KDEMrrc6IDoYBbAUKzl8-33">
          <mxGeometry relative="1" as="geometry" />
        </mxCell>
        <mxCell id="KDEMrrc6IDoYBbAUKzl8-72" value="&lt;span style=&quot;font-size: 18px&quot;&gt;Numero&lt;/span&gt;" style="ellipse;whiteSpace=wrap;html=1;fontSize=23;" vertex="1" parent="1">
          <mxGeometry x="176" y="985" width="77" height="40" as="geometry" />
        </mxCell>
        <mxCell id="KDEMrrc6IDoYBbAUKzl8-75" style="edgeStyle=orthogonalEdgeStyle;rounded=1;orthogonalLoop=1;jettySize=auto;html=1;entryX=1;entryY=0;entryDx=0;entryDy=0;fontSize=23;endArrow=none;endFill=0;" edge="1" parent="1" source="KDEMrrc6IDoYBbAUKzl8-74" target="KDEMrrc6IDoYBbAUKzl8-33">
          <mxGeometry relative="1" as="geometry">
            <Array as="points">
              <mxPoint x="236" y="775" />
            </Array>
          </mxGeometry>
        </mxCell>
        <mxCell id="KDEMrrc6IDoYBbAUKzl8-77" value="1" style="edgeLabel;html=1;align=center;verticalAlign=middle;resizable=0;points=[];fontSize=23;" vertex="1" connectable="0" parent="KDEMrrc6IDoYBbAUKzl8-75">
          <mxGeometry x="-0.0296" y="2" relative="1" as="geometry">
            <mxPoint x="-1" as="offset" />
          </mxGeometry>
        </mxCell>
        <mxCell id="KDEMrrc6IDoYBbAUKzl8-76" style="edgeStyle=orthogonalEdgeStyle;rounded=1;orthogonalLoop=1;jettySize=auto;html=1;entryX=0;entryY=0.75;entryDx=0;entryDy=0;fontSize=23;endArrow=none;endFill=0;" edge="1" parent="1" source="KDEMrrc6IDoYBbAUKzl8-74" target="KDEMrrc6IDoYBbAUKzl8-48">
          <mxGeometry relative="1" as="geometry" />
        </mxCell>
        <mxCell id="KDEMrrc6IDoYBbAUKzl8-78" value="n" style="edgeLabel;html=1;align=center;verticalAlign=middle;resizable=0;points=[];fontSize=23;" vertex="1" connectable="0" parent="KDEMrrc6IDoYBbAUKzl8-76">
          <mxGeometry x="-0.0458" y="2" relative="1" as="geometry">
            <mxPoint as="offset" />
          </mxGeometry>
        </mxCell>
        <mxCell id="KDEMrrc6IDoYBbAUKzl8-74" value="&lt;font style=&quot;font-size: 18px&quot;&gt;Possui&lt;/font&gt;" style="rhombus;whiteSpace=wrap;html=1;" vertex="1" parent="1">
          <mxGeometry x="296" y="685" width="100" height="90" as="geometry" />
        </mxCell>
        <mxCell id="KDEMrrc6IDoYBbAUKzl8-81" style="edgeStyle=orthogonalEdgeStyle;rounded=1;orthogonalLoop=1;jettySize=auto;html=1;entryX=0.5;entryY=1;entryDx=0;entryDy=0;fontSize=23;endArrow=none;endFill=0;" edge="1" parent="1" source="KDEMrrc6IDoYBbAUKzl8-80" target="KDEMrrc6IDoYBbAUKzl8-38">
          <mxGeometry relative="1" as="geometry" />
        </mxCell>
        <mxCell id="KDEMrrc6IDoYBbAUKzl8-80" value="&lt;span style=&quot;font-size: 18px&quot;&gt;Nome&lt;/span&gt;" style="ellipse;whiteSpace=wrap;html=1;fontSize=23;" vertex="1" parent="1">
          <mxGeometry x="549" y="1015" width="77" height="40" as="geometry" />
        </mxCell>
        <mxCell id="KDEMrrc6IDoYBbAUKzl8-85" style="edgeStyle=orthogonalEdgeStyle;rounded=1;orthogonalLoop=1;jettySize=auto;html=1;entryX=0.5;entryY=1;entryDx=0;entryDy=0;fontSize=23;endArrow=none;endFill=0;" edge="1" parent="1" source="KDEMrrc6IDoYBbAUKzl8-82" target="KDEMrrc6IDoYBbAUKzl8-80">
          <mxGeometry relative="1" as="geometry" />
        </mxCell>
        <mxCell id="KDEMrrc6IDoYBbAUKzl8-82" value="&lt;span style=&quot;font-size: 18px&quot;&gt;Primeiro&lt;/span&gt;" style="ellipse;whiteSpace=wrap;html=1;fontSize=23;" vertex="1" parent="1">
          <mxGeometry x="472" y="1085" width="77" height="40" as="geometry" />
        </mxCell>
        <mxCell id="KDEMrrc6IDoYBbAUKzl8-84" style="edgeStyle=orthogonalEdgeStyle;rounded=1;orthogonalLoop=1;jettySize=auto;html=1;entryX=0.5;entryY=1;entryDx=0;entryDy=0;fontSize=23;endArrow=none;endFill=0;" edge="1" parent="1" source="KDEMrrc6IDoYBbAUKzl8-83" target="KDEMrrc6IDoYBbAUKzl8-80">
          <mxGeometry relative="1" as="geometry" />
        </mxCell>
        <mxCell id="KDEMrrc6IDoYBbAUKzl8-83" value="&lt;span style=&quot;font-size: 18px&quot;&gt;Ultimo&lt;/span&gt;" style="ellipse;whiteSpace=wrap;html=1;fontSize=23;" vertex="1" parent="1">
          <mxGeometry x="626" y="1085" width="77" height="40" as="geometry" />
        </mxCell>
        <mxCell id="KDEMrrc6IDoYBbAUKzl8-87" style="edgeStyle=orthogonalEdgeStyle;rounded=1;orthogonalLoop=1;jettySize=auto;html=1;entryX=1;entryY=0.5;entryDx=0;entryDy=0;fontSize=23;endArrow=none;endFill=0;" edge="1" parent="1" source="KDEMrrc6IDoYBbAUKzl8-86" target="KDEMrrc6IDoYBbAUKzl8-38">
          <mxGeometry relative="1" as="geometry" />
        </mxCell>
        <mxCell id="KDEMrrc6IDoYBbAUKzl8-86" value="&lt;span style=&quot;font-size: 18px&quot;&gt;Especialidade&lt;/span&gt;" style="ellipse;whiteSpace=wrap;html=1;fontSize=23;" vertex="1" parent="1">
          <mxGeometry x="646" y="920" width="140" height="55" as="geometry" />
        </mxCell>
        <mxCell id="KDEMrrc6IDoYBbAUKzl8-89" style="edgeStyle=orthogonalEdgeStyle;rounded=1;orthogonalLoop=1;jettySize=auto;html=1;entryX=1;entryY=0.5;entryDx=0;entryDy=0;fontSize=23;endArrow=none;endFill=0;" edge="1" parent="1" source="KDEMrrc6IDoYBbAUKzl8-88" target="KDEMrrc6IDoYBbAUKzl8-13">
          <mxGeometry relative="1" as="geometry" />
        </mxCell>
        <mxCell id="KDEMrrc6IDoYBbAUKzl8-88" value="&lt;span style=&quot;font-size: 18px&quot;&gt;Nome&lt;/span&gt;" style="ellipse;whiteSpace=wrap;html=1;fontSize=23;" vertex="1" parent="1">
          <mxGeometry x="703" y="125" width="77" height="40" as="geometry" />
        </mxCell>
        <mxCell id="KDEMrrc6IDoYBbAUKzl8-90" value="&lt;u&gt;CNPJ&lt;/u&gt;" style="whiteSpace=wrap;html=1;align=center;fontSize=23;" vertex="1" parent="1">
          <mxGeometry x="870" y="105" width="110" height="40" as="geometry" />
        </mxCell>
        <mxCell id="KDEMrrc6IDoYBbAUKzl8-91" value="Hospital" style="text;html=1;strokeColor=none;fillColor=none;align=left;verticalAlign=middle;whiteSpace=wrap;rounded=0;fontSize=23;" vertex="1" parent="1">
          <mxGeometry x="870" y="67.5" width="130" height="35" as="geometry" />
        </mxCell>
        <mxCell id="KDEMrrc6IDoYBbAUKzl8-95" value="&lt;u&gt;ID&lt;/u&gt;" style="whiteSpace=wrap;html=1;align=center;fontSize=23;" vertex="1" parent="1">
          <mxGeometry x="870" y="255" width="110" height="40" as="geometry" />
        </mxCell>
        <mxCell id="KDEMrrc6IDoYBbAUKzl8-96" value="Ala" style="text;html=1;strokeColor=none;fillColor=none;align=left;verticalAlign=middle;whiteSpace=wrap;rounded=0;fontSize=23;" vertex="1" parent="1">
          <mxGeometry x="870" y="215" width="130" height="45" as="geometry" />
        </mxCell>
        <mxCell id="KDEMrrc6IDoYBbAUKzl8-98" style="edgeStyle=orthogonalEdgeStyle;rounded=1;orthogonalLoop=1;jettySize=auto;html=1;entryX=0.5;entryY=1;entryDx=0;entryDy=0;fontSize=23;endArrow=classic;endFill=1;" edge="1" parent="1" source="KDEMrrc6IDoYBbAUKzl8-97" target="KDEMrrc6IDoYBbAUKzl8-90">
          <mxGeometry relative="1" as="geometry" />
        </mxCell>
        <mxCell id="KDEMrrc6IDoYBbAUKzl8-97" value="HospCNPJ" style="whiteSpace=wrap;html=1;align=center;fontSize=23;" vertex="1" parent="1">
          <mxGeometry x="980" y="255" width="140" height="40" as="geometry" />
        </mxCell>
        <mxCell id="KDEMrrc6IDoYBbAUKzl8-99" value="&lt;u&gt;CRE&lt;/u&gt;" style="whiteSpace=wrap;html=1;align=center;fontSize=23;" vertex="1" parent="1">
          <mxGeometry x="1210" y="100" width="110" height="40" as="geometry" />
        </mxCell>
        <mxCell id="KDEMrrc6IDoYBbAUKzl8-100" value="NOME" style="whiteSpace=wrap;html=1;align=center;fontSize=23;" vertex="1" parent="1">
          <mxGeometry x="1320" y="100" width="110" height="40" as="geometry" />
        </mxCell>
        <mxCell id="KDEMrrc6IDoYBbAUKzl8-106" style="edgeStyle=orthogonalEdgeStyle;rounded=1;orthogonalLoop=1;jettySize=auto;html=1;fontSize=23;endArrow=classic;endFill=1;" edge="1" parent="1" source="KDEMrrc6IDoYBbAUKzl8-103">
          <mxGeometry relative="1" as="geometry">
            <mxPoint x="1260" y="140" as="targetPoint" />
            <Array as="points">
              <mxPoint x="1485" y="210" />
              <mxPoint x="1260" y="210" />
            </Array>
          </mxGeometry>
        </mxCell>
        <mxCell id="KDEMrrc6IDoYBbAUKzl8-103" value="CHEFE" style="whiteSpace=wrap;html=1;align=center;fontSize=23;" vertex="1" parent="1">
          <mxGeometry x="1430" y="100" width="110" height="40" as="geometry" />
        </mxCell>
        <mxCell id="KDEMrrc6IDoYBbAUKzl8-107" style="edgeStyle=orthogonalEdgeStyle;rounded=1;orthogonalLoop=1;jettySize=auto;html=1;fontSize=23;endArrow=classic;endFill=1;" edge="1" parent="1" source="KDEMrrc6IDoYBbAUKzl8-104">
          <mxGeometry relative="1" as="geometry">
            <mxPoint x="920" y="300" as="targetPoint" />
            <Array as="points">
              <mxPoint x="1595" y="330" />
              <mxPoint x="920" y="330" />
            </Array>
          </mxGeometry>
        </mxCell>
        <mxCell id="KDEMrrc6IDoYBbAUKzl8-104" value="ALA" style="whiteSpace=wrap;html=1;align=center;fontSize=23;" vertex="1" parent="1">
          <mxGeometry x="1540" y="100" width="110" height="40" as="geometry" />
        </mxCell>
        <mxCell id="KDEMrrc6IDoYBbAUKzl8-105" value="Enfermeira" style="text;html=1;strokeColor=none;fillColor=none;align=left;verticalAlign=middle;whiteSpace=wrap;rounded=0;fontSize=23;" vertex="1" parent="1">
          <mxGeometry x="1210" y="62.5" width="130" height="35" as="geometry" />
        </mxCell>
        <mxCell id="KDEMrrc6IDoYBbAUKzl8-108" value="&lt;u&gt;Nome&lt;/u&gt;" style="whiteSpace=wrap;html=1;align=center;fontSize=23;" vertex="1" parent="1">
          <mxGeometry x="1340" y="427.5" width="110" height="40" as="geometry" />
        </mxCell>
        <mxCell id="KDEMrrc6IDoYBbAUKzl8-109" value="Numero" style="whiteSpace=wrap;html=1;align=center;fontSize=23;" vertex="1" parent="1">
          <mxGeometry x="1450" y="427.5" width="110" height="40" as="geometry" />
        </mxCell>
        <mxCell id="KDEMrrc6IDoYBbAUKzl8-112" value="Plano de Saúde" style="text;html=1;strokeColor=none;fillColor=none;align=left;verticalAlign=middle;whiteSpace=wrap;rounded=0;fontSize=23;" vertex="1" parent="1">
          <mxGeometry x="1340" y="390" width="190" height="30" as="geometry" />
        </mxCell>
        <mxCell id="KDEMrrc6IDoYBbAUKzl8-116" style="edgeStyle=orthogonalEdgeStyle;rounded=1;orthogonalLoop=1;jettySize=auto;html=1;fontSize=23;endArrow=classic;endFill=1;entryX=0;entryY=0.75;entryDx=0;entryDy=0;" edge="1" parent="1" source="KDEMrrc6IDoYBbAUKzl8-113" target="KDEMrrc6IDoYBbAUKzl8-90">
          <mxGeometry relative="1" as="geometry">
            <mxPoint x="810" y="130" as="targetPoint" />
            <Array as="points">
              <mxPoint x="850" y="448" />
              <mxPoint x="850" y="135" />
            </Array>
          </mxGeometry>
        </mxCell>
        <mxCell id="KDEMrrc6IDoYBbAUKzl8-113" value="&lt;u&gt;HosCNPJ&lt;/u&gt;" style="whiteSpace=wrap;html=1;align=center;fontSize=23;" vertex="1" parent="1">
          <mxGeometry x="860" y="427.5" width="110" height="40" as="geometry" />
        </mxCell>
        <mxCell id="KDEMrrc6IDoYBbAUKzl8-117" style="edgeStyle=orthogonalEdgeStyle;rounded=1;orthogonalLoop=1;jettySize=auto;html=1;fontSize=23;endArrow=classic;endFill=1;entryX=0;entryY=0.5;entryDx=0;entryDy=0;" edge="1" parent="1" source="KDEMrrc6IDoYBbAUKzl8-114" target="KDEMrrc6IDoYBbAUKzl8-108">
          <mxGeometry relative="1" as="geometry">
            <mxPoint x="1330" y="447.5" as="targetPoint" />
          </mxGeometry>
        </mxCell>
        <mxCell id="KDEMrrc6IDoYBbAUKzl8-114" value="NomaPlano" style="whiteSpace=wrap;html=1;align=center;fontSize=23;" vertex="1" parent="1">
          <mxGeometry x="970" y="427.5" width="150" height="40" as="geometry" />
        </mxCell>
        <mxCell id="KDEMrrc6IDoYBbAUKzl8-115" value="Hospital Credencia Plano" style="text;html=1;strokeColor=none;fillColor=none;align=left;verticalAlign=middle;whiteSpace=wrap;rounded=0;fontSize=23;" vertex="1" parent="1">
          <mxGeometry x="860" y="390" width="290" height="35" as="geometry" />
        </mxCell>
        <mxCell id="KDEMrrc6IDoYBbAUKzl8-118" value="&lt;u&gt;CPF&lt;/u&gt;" style="whiteSpace=wrap;html=1;align=center;fontSize=23;" vertex="1" parent="1">
          <mxGeometry x="850" y="579" width="110" height="40" as="geometry" />
        </mxCell>
        <mxCell id="KDEMrrc6IDoYBbAUKzl8-119" value="NOME" style="whiteSpace=wrap;html=1;align=center;fontSize=23;" vertex="1" parent="1">
          <mxGeometry x="960" y="579" width="110" height="40" as="geometry" />
        </mxCell>
        <mxCell id="KDEMrrc6IDoYBbAUKzl8-125" style="edgeStyle=orthogonalEdgeStyle;rounded=1;orthogonalLoop=1;jettySize=auto;html=1;entryX=0.5;entryY=1;entryDx=0;entryDy=0;fontSize=23;endArrow=classic;endFill=1;" edge="1" parent="1" source="KDEMrrc6IDoYBbAUKzl8-120" target="KDEMrrc6IDoYBbAUKzl8-108">
          <mxGeometry relative="1" as="geometry">
            <Array as="points">
              <mxPoint x="1150" y="530" />
              <mxPoint x="1395" y="530" />
            </Array>
          </mxGeometry>
        </mxCell>
        <mxCell id="KDEMrrc6IDoYBbAUKzl8-120" value="NomePlano" style="whiteSpace=wrap;html=1;align=center;fontSize=23;" vertex="1" parent="1">
          <mxGeometry x="1070" y="579" width="160" height="40" as="geometry" />
        </mxCell>
        <mxCell id="KDEMrrc6IDoYBbAUKzl8-122" value="Paciente" style="text;html=1;strokeColor=none;fillColor=none;align=left;verticalAlign=middle;whiteSpace=wrap;rounded=0;fontSize=23;" vertex="1" parent="1">
          <mxGeometry x="850" y="541.5" width="130" height="35" as="geometry" />
        </mxCell>
        <mxCell id="KDEMrrc6IDoYBbAUKzl8-136" style="edgeStyle=orthogonalEdgeStyle;rounded=1;orthogonalLoop=1;jettySize=auto;html=1;entryX=0;entryY=0.5;entryDx=0;entryDy=0;fontSize=23;endArrow=classic;endFill=1;" edge="1" parent="1" source="KDEMrrc6IDoYBbAUKzl8-126" target="KDEMrrc6IDoYBbAUKzl8-129">
          <mxGeometry relative="1" as="geometry">
            <Array as="points">
              <mxPoint x="820" y="918" />
              <mxPoint x="820" y="749" />
            </Array>
          </mxGeometry>
        </mxCell>
        <mxCell id="KDEMrrc6IDoYBbAUKzl8-126" value="&lt;u&gt;MedCRM&lt;/u&gt;" style="whiteSpace=wrap;html=1;align=center;fontSize=23;" vertex="1" parent="1">
          <mxGeometry x="860" y="897.5" width="110" height="40" as="geometry" />
        </mxCell>
        <mxCell id="KDEMrrc6IDoYBbAUKzl8-137" style="edgeStyle=orthogonalEdgeStyle;rounded=1;orthogonalLoop=1;jettySize=auto;html=1;entryX=0;entryY=0.5;entryDx=0;entryDy=0;fontSize=23;endArrow=classic;endFill=1;" edge="1" parent="1" source="KDEMrrc6IDoYBbAUKzl8-127" target="KDEMrrc6IDoYBbAUKzl8-118">
          <mxGeometry relative="1" as="geometry">
            <Array as="points">
              <mxPoint x="1045" y="970" />
              <mxPoint x="800" y="970" />
              <mxPoint x="800" y="599" />
            </Array>
          </mxGeometry>
        </mxCell>
        <mxCell id="KDEMrrc6IDoYBbAUKzl8-127" value="&lt;u&gt;PacCPF&lt;/u&gt;" style="whiteSpace=wrap;html=1;align=center;fontSize=23;" vertex="1" parent="1">
          <mxGeometry x="970" y="897.5" width="150" height="40" as="geometry" />
        </mxCell>
        <mxCell id="KDEMrrc6IDoYBbAUKzl8-128" value="Atende Credencia Paciente" style="text;html=1;strokeColor=none;fillColor=none;align=left;verticalAlign=middle;whiteSpace=wrap;rounded=0;fontSize=23;" vertex="1" parent="1">
          <mxGeometry x="860" y="860" width="290" height="35" as="geometry" />
        </mxCell>
        <mxCell id="KDEMrrc6IDoYBbAUKzl8-129" value="&lt;u&gt;CRM&lt;/u&gt;" style="whiteSpace=wrap;html=1;align=center;fontSize=23;" vertex="1" parent="1">
          <mxGeometry x="840" y="728.75" width="110" height="40" as="geometry" />
        </mxCell>
        <mxCell id="KDEMrrc6IDoYBbAUKzl8-130" value="PrimeiroNome" style="whiteSpace=wrap;html=1;align=center;fontSize=23;" vertex="1" parent="1">
          <mxGeometry x="950" y="728.75" width="170" height="40" as="geometry" />
        </mxCell>
        <mxCell id="KDEMrrc6IDoYBbAUKzl8-131" value="Médico" style="text;html=1;strokeColor=none;fillColor=none;align=left;verticalAlign=middle;whiteSpace=wrap;rounded=0;fontSize=23;" vertex="1" parent="1">
          <mxGeometry x="840" y="691.25" width="190" height="30" as="geometry" />
        </mxCell>
        <mxCell id="KDEMrrc6IDoYBbAUKzl8-132" value="ÚltimoNome" style="whiteSpace=wrap;html=1;align=center;fontSize=23;" vertex="1" parent="1">
          <mxGeometry x="1120" y="728.75" width="170" height="40" as="geometry" />
        </mxCell>
        <mxCell id="KDEMrrc6IDoYBbAUKzl8-133" value="Especilidade" style="whiteSpace=wrap;html=1;align=center;fontSize=23;" vertex="1" parent="1">
          <mxGeometry x="1290" y="730" width="170" height="40" as="geometry" />
        </mxCell>
        <mxCell id="KDEMrrc6IDoYBbAUKzl8-134" value="DATA" style="whiteSpace=wrap;html=1;align=center;fontSize=23;" vertex="1" parent="1">
          <mxGeometry x="1120" y="897.5" width="110" height="40" as="geometry" />
        </mxCell>
        <mxCell id="KDEMrrc6IDoYBbAUKzl8-135" value="HORA" style="whiteSpace=wrap;html=1;align=center;fontSize=23;" vertex="1" parent="1">
          <mxGeometry x="1230" y="897.5" width="110" height="40" as="geometry" />
        </mxCell>
        <mxCell id="KDEMrrc6IDoYBbAUKzl8-144" style="edgeStyle=orthogonalEdgeStyle;rounded=1;orthogonalLoop=1;jettySize=auto;html=1;entryX=0.5;entryY=1;entryDx=0;entryDy=0;fontSize=23;endArrow=classic;endFill=1;" edge="1" parent="1" source="KDEMrrc6IDoYBbAUKzl8-138" target="KDEMrrc6IDoYBbAUKzl8-129">
          <mxGeometry relative="1" as="geometry">
            <Array as="points">
              <mxPoint x="1400" y="810" />
              <mxPoint x="895" y="810" />
            </Array>
          </mxGeometry>
        </mxCell>
        <mxCell id="KDEMrrc6IDoYBbAUKzl8-138" value="&lt;u&gt;MedCRM&lt;/u&gt;" style="whiteSpace=wrap;html=1;align=center;fontSize=23;" vertex="1" parent="1">
          <mxGeometry x="1340" y="1013.75" width="110" height="40" as="geometry" />
        </mxCell>
        <mxCell id="KDEMrrc6IDoYBbAUKzl8-143" style="edgeStyle=orthogonalEdgeStyle;rounded=1;orthogonalLoop=1;jettySize=auto;html=1;entryX=0.5;entryY=1;entryDx=0;entryDy=0;fontSize=23;endArrow=classic;endFill=1;" edge="1" parent="1" source="KDEMrrc6IDoYBbAUKzl8-139" target="KDEMrrc6IDoYBbAUKzl8-108">
          <mxGeometry relative="1" as="geometry">
            <Array as="points">
              <mxPoint x="1620" y="1034" />
              <mxPoint x="1620" y="530" />
              <mxPoint x="1395" y="530" />
            </Array>
          </mxGeometry>
        </mxCell>
        <mxCell id="KDEMrrc6IDoYBbAUKzl8-139" value="&lt;u&gt;PlanoNome&lt;/u&gt;" style="whiteSpace=wrap;html=1;align=center;fontSize=23;" vertex="1" parent="1">
          <mxGeometry x="1450" y="1013.75" width="150" height="40" as="geometry" />
        </mxCell>
        <mxCell id="KDEMrrc6IDoYBbAUKzl8-140" value="Plano Credencia Médico" style="text;html=1;strokeColor=none;fillColor=none;align=left;verticalAlign=middle;whiteSpace=wrap;rounded=0;fontSize=23;" vertex="1" parent="1">
          <mxGeometry x="1340" y="976.25" width="290" height="35" as="geometry" />
        </mxCell>
      </root>
    </mxGraphModel>
  </diagram>
</mxfile>
